# xmcd CD database file
# Copyright (C) 1997 Ti Kan
# 
# Track frame offsets:
#     183
#     11393
#     26763
#     36725
#     49593
#     59908
#     73553
#     89075
#     102608
#     113368
# 
# Disc length: 1677 seconds
# 
# Revision: 1
# Processed by: cddbd v1.4b41PL1 Copyright (c) Steve Scherf et al.
# Submitted via: DiscPlay 4.0.4
# 
DISCID=8d068b0a
DTITLE=The Statler Brothers - Today
DYEAR=1900
DGENRE=
TTITLE0=Oh Baby Mine (I Get So Lonely)
TTITLE1=Some Memories Last Forever
TTITLE2=Promise
TTITLE3=I'm Dyin' A Little Each Day
TTITLE4=There Is You
TTITLE5=Guilty
TTITLE6=Elizabeth
TTITLE7=Right on the Money
TTITLE8=I Never Want To Kiss You Goodbye
TTITLE9=Sweet By and By
EXTD=
EXTT0=
EXTT1=
EXTT2=
EXTT3=
EXTT4=
EXTT5=
EXTT6=
EXTT7=
EXTT8=
EXTT9=
PLAYORDER=
